<svg id="visual" viewBox="0 0 960 540" width="960" height="540" xmlns="http://www.w3.org/2000/svg" xmlns:xlink="http://www.w3.org/1999/xlink" version="1.1"><rect x="0" y="0" width="960" height="540" fill="#0b0b0b"></rect><defs><linearGradient id="grad1_0" x1="43.8%" y1="0%" x2="100%" y2="100%"><stop offset="14.444444444444446%" stop-color="#0b0b0b" stop-opacity="1"></stop><stop offset="85.55555555555554%" stop-color="#0b0b0b" stop-opacity="1"></stop></linearGradient></defs><defs><linearGradient id="grad2_0" x1="0%" y1="0%" x2="56.3%" y2="100%"><stop offset="14.444444444444446%" stop-color="#0b0b0b" stop-opacity="1"></stop><stop offset="85.55555555555554%" stop-color="#0b0b0b" stop-opacity="1"></stop></linearGradient></defs><g transform="translate(960, 0)"><path d="M0 270C-51.4 265.4 -102.9 260.7 -135 233.8C-167.1 206.9 -179.9 157.7 -199.2 115C-218.5 72.3 -244.2 36.2 -270 0L0 0Z" fill="#1e3019"></path></g><g transform="translate(0, 540)"><path d="M0 -270C51.2 -265.2 102.4 -260.5 135 -233.8C167.6 -207.2 181.5 -158.6 200.9 -116C220.3 -73.4 245.2 -36.7 270 0L0 0Z" fill="#1e3019"></path></g></svg>